<?xml version="1.0" encoding="UTF-8"?>
<svg width="18px" height="18px" viewBox="0 0 18 18" version="1.1" xmlns="http://www.w3.org/2000/svg" xmlns:xlink="http://www.w3.org/1999/xlink">
    <!-- Generator: Sketch 49.2 (51160) - http://www.bohemiancoding.com/sketch -->
    <title>选中icon</title>
    <desc>Created with Sketch.</desc>
    <defs></defs>
    <g id="Page-1" stroke="none" stroke-width="1" fill="none" fill-rule="evenodd">
        <g id="切图" transform="translate(-82.000000, -105.000000)" fill="#D02C52">
            <path d="M100,123 L91.9768333,114.976833 L82,105 L96,105 C98.209139,105 100,106.790861 100,109 L100,123 Z M96.6464466,107.646447 L93,111.292893 L91.3535534,109.646447 C91.1582912,109.451184 90.8417088,109.451184 90.6464466,109.646447 C90.4511845,109.841709 90.4511845,110.158291 90.6464466,110.353553 L92.6464466,112.353553 C92.8417088,112.548816 93.1582912,112.548816 93.3535534,112.353553 L97.3535534,108.353553 C97.5488155,108.158291 97.5488155,107.841709 97.3535534,107.646447 C97.1582912,107.451184 96.8417088,107.451184 96.6464466,107.646447 Z" id="选中icon"></path>
        </g>
    </g>
</svg>