<?xml version="1.0" encoding="UTF-8"?>
<svg width="15px" height="15px" viewBox="0 0 15 15" version="1.1" xmlns="http://www.w3.org/2000/svg" xmlns:xlink="http://www.w3.org/1999/xlink">
    <!-- Generator: Sketch 49.2 (51160) - http://www.bohemiancoding.com/sketch -->
    <title>关闭icon</title>
    <desc>Created with Sketch.</desc>
    <defs></defs>
    <g id="新店主注册终稿" stroke="none" stroke-width="1" fill="none" fill-rule="evenodd">
        <g id="05填写店铺注册信息默认页" transform="translate(-340.000000, -386.000000)" fill="#9A9A9A">
            <g id="Group" transform="translate(0.000000, 371.000000)">
                <path d="M348.131728,22.4246212 L354.495689,28.7885822 C354.690951,28.9838444 354.690951,29.3004269 354.495689,29.495689 C354.300427,29.6909512 353.983844,29.6909512 353.788582,29.495689 L347.424621,23.131728 L341.06066,29.495689 C340.865398,29.6909512 340.548816,29.6909512 340.353553,29.495689 C340.158291,29.3004269 340.158291,28.9838444 340.353553,28.7885822 L346.717514,22.4246212 L340.353553,16.0606602 C340.158291,15.865398 340.158291,15.5488155 340.353553,15.3535534 C340.548816,15.1582912 340.865398,15.1582912 341.06066,15.3535534 L347.424621,21.7175144 L353.788582,15.3535534 C353.983844,15.1582912 354.300427,15.1582912 354.495689,15.3535534 C354.690951,15.5488155 354.690951,15.865398 354.495689,16.0606602 L348.131728,22.4246212 Z" id="关闭icon"></path>
            </g>
        </g>
    </g>
</svg>